<svg xmlns="http://www.w3.org/2000/svg" xml:space="preserve" width="2000" height="89" data-id="lg_Vr9GL8unHV6KXDKKbE" data-version="1" viewBox="0 0 2000 89"><g data-padding="20"><g transform="translate(10 1.59)scale(.96429)"><rect width="387.19" height="91.53" x="576.315" y="-46.311" fill="none" rx="0" ry="0" transform="matrix(.97 0 0 .97 372.05 45.03)"/><path fill="#303030" d="M932.123 27.24V7.3h58.21v19.94h-17.13v41.54h-23.95V27.24Zm85.31 41.54h-27.18l30.56-58.36q1.12-2.12 3.47-3.29t4.89-1.17q2.27 0 4.44 1.04 2.18 1.03 3.37 3.19l32.8 58.59h-31.22l-2.42-6.08h-16.64Zm10.51-34.91-6.55 16.63h12.44Zm43.35 32.13V48.37q.23.04 2.17.67 1.95.64 4.72 1.43t5.56 1.38q2.79.6 4.76.6 1.69 0 2.77-.5t1.08-1.85q0-1.46-1.54-2.65-1.54-1.2-3.95-2.47t-5.12-2.89q-2.71-1.61-5.12-3.88t-3.95-5.45-1.54-7.6q0-5.43 2.28-9.19 2.27-3.75 6.1-6.04t8.62-3.33 9.84-1.04q4.27 0 8.08.46t6.45 1 3.33.74v17.67l-1.6-.35q-1.6-.35-4-.77-2.41-.42-4.97-.77t-4.48-.35q-1.77 0-2.66.62-.88.61-.88 1.46 0 .69.77 1.52t1.84 1.29q4.05 1.77 7.63 3.62t6.31 4.27q2.73 2.43 4.29 5.91 1.56 3.49 1.56 8.53 0 6.01-3.02 10.47-3.02 4.47-8.7 6.93t-13.69 2.46q-6.89 0-11.35-.65-4.47-.65-7.01-1.48t-3.56-1.48Zm53.08-58.7h24.37v18.91l14.82-18.91h24.99l-19.87 25.91 22.95 35.57h-28.07l-12.86-21.75-1.42 2.5v19.25h-24.91Zm71.83 61.48V7.3h23.95v42.97h20.67v18.51Zm62.74 0V44.8l-18.75-37.5h27.45l6.12 12.59 6.31-12.59h22.95l-19.14 37.5v23.98Z"/><rect width="100" height="50.38" x="465.044" y="-25.556" fill="#303030" rx="7" ry="7" transform="translate(90.64 45.76)scale(1.45)"/><path fill="#fff" d="m816.013 2.045 49.67 42.626-49.67 42.626h-32.846l37.82-32.407h-74.304V34.226h74.03L783.11 1.984Zm68.31 31.753a11.352 11.352 0 1 0 0 22.704 11.352 11.352 0 1 0 0-22.704"/></g><path fill="transparent" stroke="transparent" d="M720 0h560v89H720z"/></g></svg>