<?xml version="1.0" standalone="no"?>
<!DOCTYPE svg PUBLIC "-//W3C//DTD SVG 20010904//EN"
 "http://www.w3.org/TR/2001/REC-SVG-20010904/DTD/svg10.dtd">
<svg version="1.0" xmlns="http://www.w3.org/2000/svg"
 width="1024.000000pt" height="1024.000000pt" viewBox="0 0 1024.000000 1024.000000"
 preserveAspectRatio="xMidYMid meet">

<g transform="translate(0.000000,1024.000000) scale(0.100000,-0.100000)"
fill="#000000" stroke="none">
<path d="M4785 9283 c-504 -24 -961 -122 -1345 -288 -322 -138 -484 -226 -744
-403 -188 -127 -260 -185 -398 -321 -114 -111 -135 -137 -103 -125 25 10 18
-3 -45 -82 -56 -70 -69 -94 -53 -94 10 0 86 57 185 140 396 330 613 478 943
640 574 282 1042 395 1695 407 438 8 721 -24 1090 -126 248 -69 603 -205 788
-303 302 -161 573 -347 863 -594 125 -106 226 -180 235 -171 9 9 -45 105 -81
146 -38 42 -44 57 -19 47 25 -10 -15 40 -93 115 -260 250 -748 561 -1098 700
-563 223 -1011 318 -1497 319 -87 0 -110 -19 -25 -21 28 -1 63 -5 77 -9 14 -5
-84 -8 -224 -9 -137 -1 -247 1 -244 4 2 3 65 8 139 11 74 4 141 10 149 15 15
8 -58 9 -195 2z m862 -69 c-3 -3 -12 -4 -19 -1 -8 3 -5 6 6 6 11 1 17 -2 13
-5z m112 -20 c9 -8 -45 -2 -64 6 -14 7 -8 8 20 3 22 -3 42 -7 44 -9z m159 -30
c45 -9 81 -19 78 -21 -5 -5 -166 24 -174 32 -8 8 7 6 96 -11z m345 -94 c42
-11 73 -30 50 -30 -15 0 -133 42 -133 47 0 2 8 2 18 0 9 -3 38 -10 65 -17z
m-2538 -11 c-33 -10 -64 -17 -70 -16 -15 5 76 35 105 35 15 0 0 -8 -35 -19z
m-108 -35 c-3 -3 -12 -4 -19 -1 -8 3 -5 6 6 6 11 1 17 -2 13 -5z m-58 -19
c-12 -12 -120 -54 -114 -44 8 12 83 47 104 48 8 1 12 -1 10 -4z"/>
<path d="M4620 8654 c-169 -19 -440 -76 -591 -123 -372 -117 -597 -225 -897
-429 -622 -423 -1046 -985 -1262 -1672 -33 -107 -70 -244 -81 -305 -11 -60
-27 -144 -34 -185 -27 -142 -14 -696 21 -899 25 -149 99 -434 153 -593 60
-178 170 -397 296 -592 97 -151 323 -426 465 -565 90 -89 336 -287 458 -370
276 -185 718 -379 1062 -465 293 -74 564 -111 713 -99 57 5 70 9 76 27 8 20 8
20 21 -3 12 -23 13 -23 158 -19 313 11 737 105 1036 230 315 132 574 281 802
464 274 219 376 322 577 578 383 488 541 865 649 1546 69 436 31 817 -131
1307 -146 441 -413 867 -755 1208 -181 181 -194 192 -397 338 -304 218 -453
298 -797 428 -278 105 -545 167 -861 199 -143 14 -530 11 -681 -6z m547 -20
c-3 -3 -12 -4 -19 -1 -8 3 -5 6 6 6 11 1 17 -2 13 -5z m-699 -39 c-8 -8 -158
-37 -171 -32 -6 2 24 11 68 19 89 18 111 20 103 13z m862 -99 c139 -16 297
-41 350 -56 316 -84 312 -83 467 -157 62 -29 117 -53 123 -53 19 0 90 -44 90
-56 0 -6 16 -11 35 -12 34 -1 118 -42 131 -64 5 -7 -4 -9 -25 -6 -27 4 -32 1
-37 -19 -4 -13 -14 -23 -23 -23 -14 0 -14 -2 -1 -10 13 -8 13 -10 -2 -10 -9 0
-18 -5 -20 -11 -2 -6 -34 4 -78 24 -177 82 -213 96 -306 125 -317 98 -588 158
-681 150 -25 -2 8 -10 92 -22 389 -55 810 -215 1141 -432 368 -241 583 -447
819 -784 368 -526 550 -1255 474 -1895 -14 -120 -103 -480 -142 -576 -19 -46
-38 -95 -42 -109 -4 -14 -18 -49 -31 -78 -13 -29 -24 -56 -24 -61 0 -21 -63
-132 -70 -122 -7 12 -60 -29 -60 -46 0 -5 -9 -15 -19 -23 -11 -7 -18 -17 -16
-21 3 -4 -2 -12 -10 -19 -13 -11 -14 -10 -9 4 11 28 -4 17 -27 -20 -12 -21
-65 -93 -116 -161 -80 -106 -92 -126 -83 -144 12 -22 6 -39 -15 -39 -9 0 -12
-6 -9 -15 4 -9 -9 -29 -33 -53 -22 -20 -77 -74 -124 -118 -102 -99 -161 -145
-231 -180 -67 -33 -118 -71 -118 -88 0 -24 -56 -75 -106 -97 -52 -23 -123 -67
-137 -84 -6 -7 -10 -6 -14 2 -3 9 -41 -6 -121 -49 -64 -33 -130 -71 -147 -82
-53 -37 -218 -108 -365 -155 l-65 -22 48 6 c98 10 300 90 562 222 141 72 220
121 355 221 278 206 388 301 467 406 26 33 81 99 123 146 41 47 85 99 97 115
12 17 23 25 23 20 0 -10 -83 -122 -181 -242 -78 -95 -271 -288 -379 -378 -146
-121 -366 -262 -567 -364 -143 -72 -421 -173 -571 -207 -37 -8 -112 -26 -167
-39 -201 -47 -315 -60 -555 -59 -194 0 -247 4 -389 27 -189 31 -430 90 -581
142 -233 81 -585 263 -710 366 l-25 20 25 -12 c14 -6 68 -38 120 -70 244 -149
675 -319 912 -359 117 -20 107 -5 -12 18 -63 13 -128 27 -145 32 -98 31 -214
73 -243 90 -18 11 -90 43 -160 71 -125 51 -175 76 -318 163 -99 60 -210 147
-206 161 1 7 -15 20 -37 28 -22 9 -42 21 -46 27 -3 5 -14 10 -24 10 -10 0 -25
7 -32 16 -8 9 -32 28 -54 42 -53 33 -276 262 -322 332 -21 30 -46 64 -56 75
-19 20 -95 126 -175 245 -54 79 -214 391 -235 457 -9 26 -30 86 -47 132 -43
117 -95 333 -117 481 -22 152 -24 501 -5 659 20 158 86 438 143 606 81 236
229 523 367 706 259 346 586 634 957 841 127 71 308 153 405 184 93 29 209 73
194 73 -12 1 -330 -104 -359 -119 -11 -5 -63 -28 -115 -50 -114 -50 -243 -118
-308 -164 -89 -63 -103 -71 -96 -52 8 20 1 20 -36 1 -16 -8 -31 -11 -35 -6 -3
5 12 15 32 22 44 14 70 35 51 41 -27 9 10 56 61 80 30 13 51 29 51 39 0 48 63
112 150 151 19 9 71 33 115 53 44 20 105 47 135 60 67 28 343 120 419 140 107
27 344 62 541 79 86 8 416 -4 540 -18z m-1525 -86 c-22 -10 -51 -21 -65 -25
-40 -12 -11 12 35 29 56 21 78 18 30 -4z m-385 -175 c0 -2 -13 -11 -30 -20
-38 -19 -40 -11 -2 9 31 17 32 18 32 11z m3675 -328 c11 -9 18 -18 15 -20 -3
-3 -21 9 -40 25 -34 29 -16 25 25 -5z m-3805 -75 c0 -4 -28 -27 -62 -50 -35
-23 -75 -51 -90 -62 -24 -19 -28 -19 -42 -4 -9 8 -16 20 -16 26 0 6 9 1 20
-12 11 -13 20 -18 20 -12 0 7 7 12 16 12 8 0 12 5 9 10 -3 6 -1 10 5 10 6 0 8
10 5 23 -8 31 16 51 65 51 21 1 42 4 46 9 10 9 24 9 24 -1z m-175 -80 c-3 -3
-11 0 -18 7 -9 10 -8 11 6 5 10 -3 15 -9 12 -12z m4173 -230 c3 -9 -2 -13 -14
-10 -9 1 -19 9 -22 16 -3 9 2 13 14 10 9 -1 19 -9 22 -16z m-4982 -287 c-49
-68 -66 -84 -42 -37 23 43 77 114 83 108 3 -3 -16 -35 -41 -71z m4964 -3389
c0 -3 -4 -8 -10 -11 -5 -3 -10 -1 -10 4 0 6 5 11 10 11 6 0 10 -2 10 -4z"/>
<path d="M5268 8323 c7 -3 16 -2 19 1 4 3 -2 6 -13 5 -11 0 -14 -3 -6 -6z"/>
<path d="M4258 8253 c7 -3 16 -2 19 1 4 3 -2 6 -13 5 -11 0 -14 -3 -6 -6z"/>
<path d="M4655 8195 c-397 -42 -754 -162 -1094 -367 -220 -132 -386 -262 -561
-438 -169 -170 -298 -330 -397 -495 -161 -269 -235 -445 -308 -735 -45 -179
-64 -313 -74 -528 -19 -376 37 -718 174 -1078 141 -368 349 -674 657 -964 268
-254 547 -432 868 -555 52 -20 141 -54 198 -76 56 -22 124 -42 150 -44 26 -3
40 -3 32 1 -32 12 -45 17 -55 20 -30 8 -161 57 -170 63 -5 4 -30 13 -55 20
-61 18 -124 47 -139 65 -19 22 2 84 55 163 56 83 99 167 109 210 8 39 25 54
25 23 0 -25 -75 -202 -102 -242 -11 -15 -23 -53 -28 -85 -12 -73 -12 -83 0
-83 6 0 10 10 10 23 0 13 4 27 9 32 12 12 95 200 121 273 11 30 44 102 74 162
30 60 59 126 66 147 23 71 104 257 107 247 2 -6 -12 -61 -32 -123 -19 -62 -35
-118 -35 -124 0 -6 -13 -40 -30 -76 -36 -82 -130 -302 -130 -307 0 -16 18 2
29 29 8 17 23 43 33 56 17 23 18 23 18 3 0 -26 -24 -100 -55 -168 -27 -59 -34
-92 -20 -96 5 -2 22 29 38 67 74 183 137 355 147 398 6 26 29 87 51 134 23 48
49 117 59 154 17 65 52 129 71 129 13 0 14 5 -36 -147 -25 -75 -45 -141 -45
-147 0 -17 39 51 46 81 6 23 8 24 14 9 4 -13 25 26 70 133 41 98 67 148 73
142 7 -7 6 -30 -2 -67 -13 -68 -13 -74 -3 -74 5 0 14 25 21 56 8 35 16 52 21
44 9 -14 15 -6 24 35 28 121 46 140 46 51 0 -30 4 -57 8 -60 5 -3 21 33 37 79
15 47 32 85 36 85 4 0 9 -26 11 -57 3 -57 4 -57 16 -28 34 81 50 92 63 44 6
-25 14 -16 21 25 5 30 26 31 39 2 15 -33 25 -33 33 -1 8 30 26 33 33 5 6 -24
11 -25 36 -3 17 16 20 16 31 2 8 -11 23 -16 49 -14 33 3 39 0 52 -26 16 -30
29 -36 40 -19 11 18 24 11 40 -21 14 -25 21 -30 41 -25 26 7 24 9 70 -99 6
-15 9 -7 14 35 l5 55 31 -65 c17 -36 41 -99 54 -140 13 -41 25 -67 27 -57 3 9
9 14 15 11 8 -5 9 5 4 32 -3 21 -9 66 -12 99 -10 92 10 60 73 -117 107 -298
131 -364 162 -448 38 -101 102 -240 110 -240 12 0 5 95 -7 96 -25 3 -27 5 -14
13 11 6 11 13 3 30 -27 53 -31 61 -31 71 0 17 20 11 27 -7 4 -10 16 -34 28
-53 12 -19 27 -52 34 -72 14 -43 49 -80 36 -38 -16 53 -69 168 -103 220 -45
70 -90 177 -146 343 -45 134 -62 197 -52 197 9 0 34 -54 97 -211 33 -83 93
-217 133 -298 40 -80 77 -157 81 -171 4 -14 30 -71 57 -128 33 -70 54 -102 62
-99 15 6 36 -11 36 -28 0 -5 -5 -3 -10 5 -8 12 -10 11 -10 -7 0 -13 -5 -23
-12 -23 -6 0 -9 -3 -5 -6 3 -3 31 6 62 20 52 24 57 28 51 51 -11 44 -59 134
-166 310 -57 94 -126 215 -153 270 -49 100 -101 234 -93 243 3 2 35 -56 72
-129 37 -74 93 -178 125 -231 33 -54 59 -100 59 -104 0 -3 27 -50 59 -103 33
-54 69 -119 80 -147 30 -75 51 -114 63 -114 16 0 274 146 358 203 180 121 313
230 455 372 395 395 612 801 724 1354 40 193 51 307 51 503 0 182 -9 276 -45
453 -71 354 -217 709 -408 995 -117 175 -166 235 -334 406 -173 175 -347 310
-563 436 -299 175 -571 274 -930 343 -226 43 -606 56 -855 30z m408 -107 c26
-5 63 -7 82 -4 20 4 41 4 47 0 6 -4 48 -7 92 -6 111 1 126 -9 115 -80 -4 -29
-13 -100 -19 -158 -7 -58 -15 -109 -20 -115 -8 -11 -10 -19 -38 -177 -10 -60
-16 -108 -13 -108 9 0 78 294 106 447 30 171 31 173 61 173 36 0 37 7 -56
-375 -51 -207 -76 -342 -66 -352 3 -4 6 1 6 11 0 15 20 98 99 411 10 39 28 92
41 119 12 28 23 74 25 105 1 43 6 57 19 59 24 5 29 -20 17 -79 -15 -70 -7 -74
13 -5 18 59 31 75 49 57 9 -9 4 -43 -22 -139 -59 -222 -51 -208 38 68 17 54
33 67 39 35 2 -9 -4 -39 -13 -67 -13 -42 -14 -52 -3 -59 10 -7 9 -9 -4 -9 -22
0 -46 -69 -28 -80 8 -5 6 -9 -8 -12 -13 -4 -19 -15 -20 -35 0 -17 -16 -72 -36
-124 -19 -52 -42 -128 -50 -169 -9 -41 -18 -86 -21 -100 l-6 -25 15 26 c43 73
147 430 139 473 -4 20 -2 27 5 22 6 -4 9 -14 6 -24 -5 -14 -3 -14 10 2 9 11
16 23 16 27 0 5 14 46 31 93 46 128 82 108 43 -23 -16 -54 -12 -83 5 -40 5 13
10 17 10 9 1 -26 -47 -135 -60 -135 -7 0 -14 -6 -17 -14 -3 -8 0 -11 6 -7 6 4
8 -2 5 -15 -3 -11 -12 -23 -19 -26 -8 -3 -14 -11 -14 -19 0 -8 -4 -22 -10 -32
-20 -35 -110 -289 -109 -308 1 -22 31 44 58 127 18 52 50 122 51 108 1 -14
-33 -115 -43 -127 -7 -9 -6 -17 6 -29 15 -16 20 -10 58 73 56 120 111 261 143
364 32 100 49 130 76 130 25 0 27 -45 4 -78 -8 -12 -26 -52 -38 -90 -13 -37
-49 -123 -80 -192 -90 -198 -134 -303 -141 -335 l-7 -30 21 25 c29 36 36 18
17 -41 -10 -28 -15 -53 -13 -55 8 -8 239 448 302 596 63 146 91 180 89 110 -1
-39 0 -36 -212 -454 -84 -164 -152 -304 -152 -312 0 -7 10 -12 21 -11 25 2 70
58 182 227 24 36 66 106 94 155 166 296 196 346 207 342 17 -6 8 -33 -41 -121
-25 -44 -69 -124 -98 -176 -28 -52 -98 -164 -154 -249 -56 -85 -116 -184 -132
-220 -31 -69 -55 -148 -47 -156 7 -8 131 188 154 244 16 39 84 134 91 127 3
-2 -8 -32 -23 -65 -32 -72 -28 -87 8 -34 15 21 75 110 135 198 61 88 135 201
166 250 30 50 65 99 78 110 l22 20 -8 -24 c-20 -64 -369 -586 -423 -632 -25
-22 -55 -65 -82 -119 -23 -47 -51 -98 -62 -113 -11 -16 -18 -30 -16 -32 2 -3
37 44 76 104 91 136 141 195 142 166 0 -11 -15 -43 -34 -70 -39 -57 -136 -221
-136 -231 0 -14 30 19 36 39 9 29 61 105 99 143 16 17 49 54 72 81 44 52 65
80 284 368 160 211 186 242 195 233 8 -9 19 6 -181 -260 -261 -346 -292 -390
-335 -474 -22 -43 -50 -94 -62 -112 -11 -18 -19 -35 -16 -37 6 -6 149 140 209
215 30 36 101 119 159 184 183 206 259 297 291 347 17 27 35 49 40 49 21 0 5
-32 -48 -97 -32 -39 -110 -132 -173 -209 -63 -76 -162 -199 -219 -274 -57 -74
-128 -164 -158 -200 -72 -87 -71 -102 4 -52 23 15 192 183 377 372 184 190
340 346 346 348 28 10 2 -26 -74 -101 -179 -176 -556 -596 -574 -640 -8 -18
-21 -40 -29 -49 -8 -9 -13 -22 -11 -29 2 -6 31 15 64 47 34 33 90 82 125 110
35 28 129 111 207 185 281 262 367 340 387 351 21 10 -125 -136 -355 -357 -74
-72 -168 -164 -208 -205 -40 -41 -82 -83 -93 -92 -23 -22 -25 -58 -3 -58 22 0
57 25 214 155 74 61 189 155 255 208 66 53 165 133 220 178 96 79 98 80 45 25
-30 -32 -93 -90 -139 -129 -47 -40 -134 -115 -195 -167 -61 -53 -124 -106
-141 -119 -64 -48 -285 -272 -285 -287 0 -15 3 -15 28 1 15 10 44 31 64 47 21
16 72 52 113 79 110 71 342 243 610 449 90 70 127 88 62 30 -46 -40 -223 -180
-372 -295 -229 -176 -331 -256 -384 -303 -30 -26 -63 -52 -74 -58 -12 -7 -16
-14 -9 -18 25 -15 428 226 702 419 96 68 188 131 205 140 107 58 -193 -161
-547 -401 -139 -94 -254 -178 -256 -187 -5 -27 30 -21 105 19 37 21 129 68
203 105 74 38 191 104 260 148 69 44 176 113 239 153 125 79 147 91 116 60
-24 -23 -518 -343 -578 -374 -66 -33 -127 -78 -127 -92 0 -17 -55 -46 -143
-75 -58 -20 -74 -21 -118 -12 -27 6 -65 11 -84 11 -19 0 -37 5 -40 10 -3 6
-24 10 -47 10 -22 0 -79 7 -127 15 -47 8 -131 21 -186 30 -95 15 -102 17 -135
54 -19 21 -46 60 -59 87 -13 27 -45 85 -71 129 -109 185 -182 319 -313 575
-121 237 -159 306 -174 318 -24 17 -33 15 -33 -7 0 -11 -4 -22 -9 -25 -5 -4
-28 -43 -51 -89 -51 -98 -60 -110 -60 -74 0 42 -20 32 -21 -10 -3 -97 -31
-129 -55 -63 l-12 35 -1 -61 c-1 -70 -24 -156 -47 -175 -8 -7 -22 -28 -30 -48
-8 -19 -36 -71 -62 -115 -27 -45 -57 -101 -67 -126 -11 -25 -43 -85 -73 -135
-30 -49 -71 -127 -92 -171 l-38 -82 -68 -11 c-38 -6 -164 -24 -280 -40 -116
-16 -260 -42 -320 -57 -131 -32 -157 -28 -254 42 -52 38 -345 214 -356 214 -6
0 -154 92 -154 96 0 6 52 -18 80 -37 14 -9 70 -39 125 -66 55 -27 141 -71 190
-98 230 -123 257 -135 307 -135 26 0 48 4 48 10 0 5 -26 23 -57 40 -32 16
-116 68 -188 114 -71 47 -184 118 -250 158 -66 39 -154 97 -195 128 -42 30
-87 63 -100 73 -51 37 18 -2 98 -56 44 -28 118 -74 166 -102 48 -27 130 -77
184 -110 143 -89 280 -160 344 -179 72 -21 95 -20 43 2 -52 22 -66 32 -61 41
3 4 -7 14 -21 22 -15 8 -86 61 -158 118 -71 58 -191 146 -265 196 -357 242
-404 276 -305 220 52 -30 80 -48 181 -118 34 -23 108 -72 165 -110 57 -37 163
-108 234 -157 175 -121 256 -163 327 -170 l57 -6 -22 24 c-12 14 -62 52 -112
85 -49 33 -124 88 -165 122 -41 34 -133 103 -205 153 -222 157 -282 203 -332
255 l-48 51 40 -29 c22 -15 51 -38 65 -50 14 -12 57 -44 95 -71 39 -26 113
-80 165 -118 243 -180 474 -321 540 -330 l45 -6 -50 46 c-85 80 -147 130 -237
192 -100 70 -262 203 -458 376 -74 66 -137 121 -139 123 -2 2 -2 5 0 7 6 6
114 -78 204 -158 125 -113 288 -245 388 -315 51 -35 132 -92 181 -127 49 -35
97 -64 107 -64 10 0 20 -4 24 -10 3 -5 20 -19 38 -32 l32 -23 -22 30 c-35 47
-193 196 -528 498 -82 74 -168 154 -190 178 -61 66 -109 128 -103 134 3 3 26
-21 51 -52 25 -32 57 -67 69 -78 13 -10 52 -44 88 -74 36 -30 94 -82 130 -115
36 -34 135 -117 220 -185 85 -68 194 -161 241 -207 48 -46 89 -84 93 -84 15 0
3 31 -31 76 -20 27 -148 164 -284 304 -392 405 -486 507 -476 516 3 3 27 -19
53 -48 57 -63 134 -140 304 -304 69 -67 203 -201 299 -298 95 -97 179 -176
186 -176 21 0 -52 124 -117 199 -32 36 -85 99 -119 140 -33 41 -89 106 -124
145 -80 89 -278 335 -309 384 -32 49 -41 82 -24 82 7 0 21 -19 31 -43 21 -51
100 -150 252 -317 62 -69 133 -150 156 -180 23 -30 84 -98 134 -150 50 -52
103 -111 117 -130 20 -26 27 -30 28 -17 1 45 -97 202 -256 412 -160 212 -346
477 -339 483 8 8 68 -66 149 -181 39 -56 93 -129 119 -162 26 -33 72 -94 104
-135 31 -41 68 -88 82 -103 14 -15 55 -72 91 -125 69 -102 108 -132 95 -72 -7
33 -57 132 -80 160 -7 8 -39 62 -72 120 -33 58 -96 159 -140 225 -89 134 -197
318 -208 354 -13 42 17 18 48 -39 16 -30 48 -83 71 -119 24 -36 51 -79 60 -96
9 -16 43 -68 77 -115 33 -47 74 -112 91 -145 17 -33 55 -96 86 -140 31 -44 66
-98 79 -120 26 -45 29 -31 8 30 l-14 40 19 -25 c11 -14 29 -49 40 -78 46 -121
76 -151 41 -40 -18 59 -115 252 -243 483 -30 55 -83 152 -118 215 -34 63 -78
141 -97 173 -31 52 -39 98 -14 82 15 -9 106 -164 135 -228 14 -32 48 -95 75
-140 52 -87 80 -138 170 -307 31 -58 75 -130 97 -160 23 -30 49 -70 58 -87 9
-18 19 -33 22 -33 12 0 -8 75 -32 122 -13 26 -24 52 -24 57 0 6 -28 70 -61
143 -34 73 -76 167 -94 208 -18 41 -55 125 -83 185 -56 126 -122 290 -122 305
0 28 24 3 46 -47 14 -32 38 -83 53 -113 16 -30 34 -73 41 -95 7 -22 34 -81 61
-131 27 -50 49 -99 49 -107 0 -16 214 -443 231 -462 22 -23 4 47 -60 231 -38
110 -90 255 -116 324 -25 69 -58 159 -71 200 -25 75 -72 172 -59 120 18 -69
18 -73 5 -65 -10 6 -12 4 -7 -9 4 -10 1 -26 -6 -37 -13 -18 -15 -18 -29 -2
-24 30 -51 101 -45 123 3 12 1 18 -5 14 -6 -4 -9 -1 -6 6 8 25 36 36 58 22 24
-15 24 -13 5 24 -21 40 -20 76 2 72 30 -6 69 -79 105 -198 36 -116 75 -223
130 -360 51 -124 118 -282 138 -326 11 -22 20 -46 20 -52 0 -7 5 -12 10 -12
13 0 13 17 -1 25 -6 4 -8 13 -5 21 11 28 -117 519 -154 594 -31 64 -90 284
-90 338 0 49 42 7 55 -56 9 -46 28 -29 20 19 -6 37 -5 39 23 45 19 4 32 14 36
27 7 28 24 12 49 -46 l17 -42 -5 48 c-5 41 -4 47 12 47 41 0 64 -47 69 -140 2
-36 6 -87 9 -113 6 -68 -16 -41 -33 37 -13 67 -39 106 -29 46 28 -172 51 -260
86 -328 5 -9 19 -71 31 -137 12 -66 28 -133 35 -150 8 -16 17 -45 20 -63 8
-40 20 -33 21 11 2 47 -32 259 -72 452 -34 164 -47 242 -60 351 -8 64 9 80 41
39 16 -19 24 -23 27 -14 4 11 8 12 20 1 21 -17 42 -7 55 28 14 38 25 38 61 -1
26 -28 30 -29 44 -15 9 8 18 13 21 10 3 -3 12 7 21 24 15 29 15 29 93 25 43
-2 99 -9 126 -15z m-803 -163 c0 -8 -4 -15 -10 -15 -5 0 -7 7 -4 15 4 8 8 15
10 15 2 0 4 -7 4 -15z m-47 -35 c-3 -11 -7 -20 -9 -20 -2 0 -4 9 -4 20 0 11 4
20 9 20 5 0 7 -9 4 -20z m41 -16 c3 -8 2 -12 -4 -9 -6 3 -10 10 -10 16 0 14 7
11 14 -7z m353 -316 c-3 -8 -6 -5 -6 6 -1 11 2 17 5 13 3 -3 4 -12 1 -19z
m534 -373 c83 -164 161 -315 175 -337 14 -21 77 -141 141 -266 64 -125 120
-232 125 -238 4 -6 32 -14 61 -18 174 -22 602 -92 712 -116 72 -16 186 -38
255 -50 69 -11 163 -28 210 -37 47 -9 100 -18 118 -21 17 -2 32 -8 32 -12 0
-5 -55 -58 -122 -118 -68 -60 -136 -124 -153 -142 -16 -18 -70 -67 -120 -109
-49 -42 -112 -99 -140 -126 -27 -28 -68 -64 -90 -80 -22 -16 -109 -98 -193
-183 -107 -107 -152 -158 -148 -170 11 -40 28 -139 56 -332 16 -113 36 -248
44 -300 8 -52 22 -153 30 -225 30 -252 39 -310 47 -332 5 -13 7 -23 4 -23 -2
0 -140 67 -307 148 -167 82 -319 155 -338 162 -19 7 -148 68 -287 136 -138 68
-259 124 -268 124 -9 0 -81 -33 -159 -72 -77 -40 -184 -92 -236 -115 -357
-157 -628 -290 -717 -349 -36 -24 -68 -42 -71 -39 -3 3 4 47 16 98 11 50 26
151 32 222 18 222 39 404 64 565 13 85 27 181 30 213 3 31 9 82 12 112 4 39
10 55 20 55 27 0 -15 54 -125 162 -58 57 -148 146 -201 199 -52 53 -149 145
-215 204 -66 60 -128 117 -138 127 -18 18 -27 23 -27 13 0 -3 27 -33 60 -67
33 -35 80 -85 103 -112 23 -26 68 -76 100 -110 31 -35 57 -66 57 -71 0 -8
-160 136 -315 285 -55 53 -137 130 -183 171 l-83 75 168 33 c92 18 245 51 338
72 174 41 567 108 755 130 58 6 110 17 116 23 6 6 73 132 148 280 75 149 141
275 145 280 5 6 33 58 63 116 81 155 140 260 171 305 15 22 36 68 48 103 12
35 23 61 25 59 3 -2 72 -138 155 -302z m785 279 c-4 -9 -9 -15 -11 -12 -3 3
-3 13 1 22 4 9 9 15 11 12 3 -3 3 -13 -1 -22z m-1776 -344 c17 -33 28 -60 25
-60 -8 0 -52 73 -60 98 -12 40 4 23 35 -38z m-150 -143 c0 -5 -7 -4 -15 3 -8
7 -15 20 -15 29 1 13 3 13 15 -3 8 -11 15 -24 15 -29z m-444 -211 c10 -8 16
-17 13 -20 -3 -4 -17 2 -30 13 -27 23 -13 28 17 7z m3654 -70 c0 -2 -46 -30
-102 -62 -57 -32 -158 -91 -225 -131 -68 -40 -126 -73 -129 -73 -4 0 -34 -19
-67 -41 -94 -64 -224 -121 -269 -117 -21 2 -38 7 -39 12 0 4 40 22 88 38 48
16 135 55 193 86 58 31 121 64 141 73 19 9 55 29 80 45 36 23 318 173 327 174
1 0 2 -2 2 -4z m-30 -171 c0 -2 -84 -47 -187 -99 -104 -52 -224 -115 -268
-140 -89 -52 -113 -56 -203 -41 -45 8 -30 25 21 25 23 0 60 5 82 11 37 10 279
119 469 211 84 40 86 41 86 33z m-4256 -34 c3 -4 34 -19 68 -31 35 -13 129
-56 210 -97 81 -40 180 -84 220 -98 l73 -24 -45 -1 c-37 0 -85 21 -297 126
-139 69 -253 128 -253 130 0 8 19 4 24 -5z m4316 -84 c0 -2 -48 -25 -107 -52
-60 -26 -155 -70 -213 -98 -58 -27 -123 -51 -145 -53 -48 -5 -52 -8 145 77
298 127 320 136 320 126z m-4343 -46 c100 -42 348 -119 408 -127 43 -6 46 -8
25 -15 -14 -4 -40 -7 -58 -8 -34 -1 -329 111 -422 161 -63 33 -54 31 47 -11z
m4268 -137 c-71 -31 -148 -58 -170 -61 -55 -8 -39 5 28 23 30 8 97 32 148 54
52 21 101 39 109 39 8 0 -43 -25 -115 -55z m-4244 -1 c30 -9 79 -22 109 -28
52 -12 53 -13 17 -14 -35 -1 -142 29 -177 50 -22 13 -10 11 51 -8z m4309 -127
c0 -8 -213 -97 -223 -93 -20 6 38 37 125 67 85 29 98 33 98 26z m-4265 -50
c18 -13 18 -14 -8 -9 -15 3 -30 9 -33 14 -8 14 20 10 41 -5z m4179 -141 c-46
-14 -152 -30 -143 -21 9 9 121 34 154 34 28 0 27 -1 -11 -13z m76 -105 c-25
-4 -83 -13 -130 -19 -47 -7 -101 -14 -120 -17 -24 -4 -30 -2 -20 4 8 5 56 15
105 22 50 6 97 13 105 15 8 1 35 3 60 3 l45 0 -45 -8z m-4285 -125 c193 -6
290 -23 141 -24 -119 -1 -425 18 -456 29 -16 6 5 7 60 5 47 -3 162 -7 255 -10z
m4395 -6 c-156 -16 -475 -28 -484 -18 -6 5 -1 9 15 10 109 6 400 16 469 16
l85 0 -85 -8z m-4112 -128 c9 -5 1 -10 -25 -14 -52 -9 -293 -8 -378 1 l-70 7
95 6 c158 9 364 9 378 0z m433 -38 l24 -26 -32 23 c-34 25 -39 30 -25 30 5 0
19 -12 33 -27z m3669 17 c10 -6 -92 -10 -298 -10 -206 0 -311 3 -307 10 8 13
584 13 605 0z m-4015 -90 l20 -1 -20 -8 c-11 -5 -126 -11 -255 -14 -153 -3
-221 -2 -195 4 44 10 378 29 410 23 11 -2 29 -4 40 -4z m430 0 c3 -5 1 -10 -4
-10 -6 0 -11 5 -11 10 0 6 2 10 4 10 3 0 8 -4 11 -10z m3279 -11 c154 -11 282
-22 283 -23 2 -2 -145 -2 -327 -1 -255 2 -334 6 -346 16 -14 12 -14 14 3 20
29 12 89 10 387 -12z m-259 -63 c55 -9 116 -21 135 -26 19 -6 118 -21 220 -35
222 -31 313 -46 307 -52 -5 -4 -78 3 -432 42 -399 44 -475 56 -475 75 0 23 83
22 245 -4z m-3301 5 c12 -19 -93 -42 -229 -52 -77 -5 -198 -16 -270 -24 -236
-27 -224 -26 -190 -15 37 12 221 42 425 69 256 34 257 34 264 22z m366 -11 c0
-5 -2 -10 -4 -10 -3 0 -8 5 -11 10 -3 6 -1 10 4 10 6 0 11 -4 11 -10z m50 -50
c0 -5 -2 -10 -4 -10 -3 0 -8 5 -11 10 -3 6 -1 10 4 10 6 0 11 -4 11 -10z
m-312 -12 c-3 -7 -33 -21 -68 -30 -34 -9 -65 -20 -68 -23 -3 -3 40 -5 96 -5
55 0 103 -4 107 -10 8 -13 -44 -38 -122 -56 -37 -8 -73 -19 -78 -24 -6 -5 -65
-20 -130 -34 -250 -51 -284 -58 -426 -92 -137 -32 -220 -45 -159 -24 71 23
225 64 391 104 102 25 201 51 220 59 l34 14 -32 7 c-45 10 -41 23 8 31 22 4
38 9 36 11 -3 3 -59 -4 -126 -16 -67 -11 -154 -25 -194 -30 -39 -5 -137 -21
-216 -35 -80 -13 -146 -23 -148 -21 -6 6 119 35 285 66 163 31 236 51 287 78
59 31 311 55 303 30z m3152 -3 c30 -8 76 -15 103 -15 26 0 47 -4 47 -10 0 -5
-8 -10 -17 -10 -40 -1 20 -22 130 -46 62 -13 144 -31 182 -39 86 -19 108 -26
102 -31 -2 -3 -89 11 -192 31 -197 37 -395 56 -395 38 0 -14 35 -23 100 -24
59 -1 58 -4 -4 -14 -21 -3 -36 -9 -33 -11 7 -7 131 -39 242 -63 50 -11 119
-31 155 -44 36 -13 118 -37 182 -53 65 -15 116 -30 114 -31 -7 -7 -214 38
-290 62 -42 13 -127 33 -188 45 -62 11 -131 25 -153 30 -22 5 -59 10 -82 10
-68 0 -52 -23 35 -52 42 -14 145 -48 227 -76 83 -27 179 -62 215 -77 36 -16
90 -36 120 -46 30 -9 47 -18 38 -18 -9 -1 -56 13 -105 30 -48 17 -164 53 -258
79 -93 25 -177 49 -185 53 -8 3 -42 11 -75 17 -33 6 -71 15 -85 20 -94 31
-171 51 -186 48 -24 -5 46 -30 143 -52 112 -25 129 -35 63 -36 l-55 -1 35 -18
c19 -10 130 -50 245 -89 116 -39 262 -96 325 -127 123 -60 116 -64 -15 -9 -44
18 -177 65 -295 103 -276 90 -409 122 -323 77 16 -8 35 -21 42 -30 7 -8 29
-20 49 -27 20 -6 87 -35 147 -64 339 -163 527 -257 522 -261 -3 -3 -30 6 -61
20 -31 14 -58 26 -60 26 -2 0 -64 28 -138 63 -299 142 -442 197 -512 197 l-41
0 25 -20 c14 -11 68 -41 120 -68 285 -146 607 -328 597 -338 -4 -4 -152 70
-172 86 -5 4 -104 55 -220 113 -198 99 -283 134 -365 152 -50 10 -34 -3 100
-83 63 -38 162 -100 220 -139 58 -38 128 -83 155 -98 28 -16 66 -41 85 -55 19
-15 83 -57 142 -94 59 -37 111 -72 114 -78 8 -13 -2 -7 -61 32 -22 15 -71 44
-110 64 -38 20 -108 61 -155 90 -199 126 -248 156 -305 186 -33 18 -69 38 -80
45 -11 6 -45 20 -75 30 -30 9 -59 21 -64 26 -6 5 -21 9 -35 9 -23 0 -24 -1 -9
-16 9 -9 32 -26 52 -38 19 -11 103 -70 187 -130 83 -59 194 -138 247 -175 182
-127 302 -215 298 -218 -6 -6 -147 84 -280 180 -66 47 -156 107 -200 133 -45
26 -101 62 -126 79 -50 36 -210 119 -216 112 -11 -11 13 -39 74 -88 141 -112
198 -157 237 -185 88 -64 425 -342 425 -351 0 -3 -9 1 -20 8 -41 29 -258 196
-313 242 -109 88 -348 247 -374 247 -7 0 -13 -5 -13 -12 0 -9 -3 -9 -12 0 -7
7 -16 12 -21 12 -14 0 84 -93 238 -225 77 -66 164 -143 195 -170 30 -28 98
-88 150 -134 52 -47 104 -94 115 -105 77 -76 -213 157 -548 442 -78 66 -237
175 -237 163 0 -6 12 -18 27 -28 33 -22 139 -123 129 -123 -10 0 -57 30 -85
54 -133 116 327 -342 514 -511 44 -40 76 -72 70 -72 -5 -1 -98 76 -205 169
-107 93 -249 217 -315 274 -193 169 -241 234 -256 348 -23 177 -39 316 -39
347 0 27 3 32 17 27 15 -6 15 -4 -2 14 -27 30 -11 36 49 17 63 -20 83 -21 39
-2 -31 13 -60 51 -48 63 3 3 31 1 62 -6 31 -6 58 -10 60 -8 2 2 -18 14 -44 27
-57 29 -58 45 -1 41 l41 -3 -24 20 -24 20 55 1 c30 0 98 -7 150 -16 155 -25
190 -28 190 -15 0 6 -10 13 -22 15 -74 14 -249 46 -280 51 -21 3 -40 10 -43
15 -10 16 61 22 162 16 54 -4 113 -8 132 -9 19 -1 36 3 38 10 3 8 -9 12 -35
11 -44 0 -164 40 -156 53 9 15 204 10 264 -6z m-2772 -27 c7 -7 12 -21 12 -32
0 -18 -1 -18 -25 4 -14 13 -25 27 -25 32 0 12 24 10 38 -4z m-238 -82 c0 -7
-7 -19 -15 -26 -25 -20 -18 -25 30 -22 40 4 45 2 45 -17 0 -12 8 -25 18 -29
10 -4 32 -23 49 -42 33 -38 33 -47 17 -190 -6 -59 -11 -69 -49 -107 -23 -24
-41 -43 -40 -43 2 0 15 7 31 14 30 16 44 13 44 -10 0 -30 -30 -70 -81 -109
-29 -22 -60 -47 -69 -55 -9 -8 -48 -31 -86 -50 -87 -44 -156 -89 -275 -182
-52 -40 -112 -86 -134 -102 -22 -16 -69 -52 -105 -81 -69 -54 -120 -89 -120
-81 0 3 22 22 49 43 26 21 113 92 192 159 79 66 182 149 229 183 46 35 90 71
97 81 7 10 24 21 38 24 27 7 32 20 13 40 -15 16 -73 -9 -165 -72 -34 -23 -64
-42 -67 -42 -9 0 -191 -123 -251 -170 -89 -69 -199 -145 -191 -132 17 28 201
173 335 264 48 32 104 72 126 88 22 17 56 42 77 55 20 13 39 29 42 34 4 5 33
25 66 43 33 18 60 38 60 44 0 16 -30 26 -44 15 -6 -5 -76 -43 -156 -84 -150
-76 -351 -194 -478 -278 -91 -61 -105 -63 -26 -4 140 107 430 294 559 359 53
27 60 35 63 64 l3 33 -38 -17 c-21 -9 -56 -23 -78 -31 -22 -8 -47 -20 -55 -27
-8 -7 -46 -29 -85 -48 -74 -37 -287 -148 -392 -204 -35 -19 -63 -32 -63 -30 0
6 101 72 168 110 31 18 122 70 202 116 80 45 163 95 185 109 22 15 59 35 83
46 41 17 82 51 51 41 -8 -2 -48 -12 -89 -22 -41 -9 -130 -43 -198 -76 -68 -32
-125 -58 -127 -58 -2 0 -54 -23 -115 -51 -176 -81 -148 -52 42 43 95 48 201
103 236 122 35 20 89 44 120 53 l57 17 -60 7 c-63 7 -155 -13 -276 -62 -80
-32 -222 -79 -226 -75 -2 1 27 16 64 31 38 16 99 44 136 62 38 19 101 46 140
60 40 14 90 38 112 54 22 15 60 33 85 40 51 14 74 29 45 29 -31 -1 -180 -26
-191 -33 -5 -3 -73 -22 -149 -42 -77 -20 -162 -43 -190 -51 -27 -8 -45 -10
-40 -6 16 13 140 58 275 98 136 41 195 63 168 64 -9 0 -19 4 -22 9 -7 10 96
46 254 90 123 34 140 36 140 17z m3703 -73 c-7 -2 -19 -2 -25 0 -7 3 -2 5 12
5 14 0 19 -2 13 -5z m64 -9 c-3 -3 -12 -4 -19 -1 -8 3 -5 6 6 6 11 1 17 -2 13
-5z m50 -10 c-3 -3 -12 -4 -19 -1 -8 3 -5 6 6 6 11 1 17 -2 13 -5z m-3707
-503 c0 -22 -13 -40 -62 -82 -34 -30 -85 -70 -114 -89 -28 -19 -86 -62 -128
-95 -41 -33 -97 -76 -123 -95 -26 -19 -78 -64 -116 -99 -37 -36 -77 -71 -90
-79 -12 -9 -65 -52 -117 -97 -52 -45 -102 -85 -110 -90 -24 -13 15 24 160 147
74 64 167 150 206 190 62 66 155 148 249 223 110 87 185 154 185 164 0 8 37
29 53 30 4 1 7 -12 7 -28z m3600 -53 c10 -6 7 -7 -10 -2 -14 3 -32 11 -40 16
-10 6 -7 7 10 2 14 -3 32 -11 40 -16z m-3625 -102 c-9 -19 -51 -64 -94 -100
-43 -36 -113 -99 -155 -141 -42 -41 -114 -102 -159 -135 -45 -34 -117 -93
-160 -132 -79 -72 -196 -168 -204 -168 -18 0 144 149 335 309 43 35 115 105
162 155 47 50 130 135 185 189 80 78 101 93 103 77 2 -10 -4 -35 -13 -54z
m2449 -40 c3 -13 16 -26 28 -30 18 -5 20 -8 9 -15 -12 -7 -10 -14 10 -39 28
-35 58 -56 67 -47 4 3 2 9 -3 13 -6 4 -17 16 -25 27 -14 19 -14 19 5 5 43 -32
49 -41 35 -50 -16 -10 -15 -12 245 -295 258 -280 288 -315 279 -315 -14 0
-641 635 -657 665 -8 17 -18 47 -22 68 -6 29 -4 37 8 37 8 0 18 -11 21 -24z
m1176 -32 c0 -2 -9 0 -20 6 -11 6 -20 13 -20 16 0 2 9 0 20 -6 11 -6 20 -13
20 -16z m-3630 -31 c0 -27 -7 -35 -162 -198 -197 -207 -261 -270 -348 -342
-41 -33 -99 -85 -127 -113 -29 -28 -53 -45 -53 -37 0 14 27 41 194 192 49 44
121 118 159 165 39 47 98 114 132 150 209 222 205 219 205 183z m2467 -125
c12 -26 142 -190 280 -354 154 -182 235 -285 230 -290 -5 -5 -204 204 -281
296 -79 94 -200 241 -214 260 -18 24 -43 110 -33 110 4 0 13 -10 18 -22z
m-2491 -72 c-9 -37 -82 -120 -283 -321 -98 -99 -201 -206 -227 -238 -27 -32
-51 -55 -53 -53 -7 7 50 87 82 116 30 28 214 227 285 309 25 28 65 73 90 100
25 26 58 65 73 85 31 41 43 41 33 2z m3409 -136 c10 -11 16 -20 13 -20 -3 0
-13 9 -23 20 -10 11 -16 20 -13 20 3 0 13 -9 23 -20z m-4295 -25 c0 -2 -10
-10 -22 -16 -21 -11 -22 -11 -9 4 13 16 31 23 31 12z m850 -39 c-6 -19 -28
-52 -48 -73 -21 -21 -63 -70 -93 -108 -31 -39 -67 -79 -79 -90 -13 -11 -59
-65 -103 -120 -76 -95 -103 -122 -113 -112 -6 6 76 110 144 182 31 33 71 77
87 97 17 20 62 74 101 120 39 46 79 98 88 117 22 41 32 34 16 -13z m2588 -18
c16 -24 59 -76 95 -116 91 -101 266 -350 240 -341 -6 2 -32 31 -57 64 -97 128
-149 192 -190 235 -74 79 -126 151 -126 176 0 13 2 24 5 24 2 0 17 -19 33 -42z
m-2128 -69 c-12 -45 -108 -262 -159 -359 -104 -199 -195 -360 -203 -360 -18 0
2 52 63 165 71 132 245 481 277 555 26 62 38 61 22 -1z m1874 -229 c112 -170
169 -258 192 -300 10 -19 25 -43 33 -53 8 -9 12 -19 9 -22 -12 -13 -40 11 -60
49 -11 22 -55 90 -98 151 -42 60 -93 139 -114 175 -20 36 -53 91 -72 124 -77
132 -7 52 110 -124z m221 113 c31 -32 75 -87 99 -123 67 -99 146 -232 146
-244 -1 -13 -19 9 -87 105 -29 41 -83 116 -121 167 -72 97 -107 152 -98 152 3
0 31 -26 61 -57z m-15 -198 c42 -49 140 -186 174 -244 21 -34 -30 11 -95 85
-81 92 -176 227 -219 312 -48 96 -35 94 29 -3 33 -49 83 -117 111 -150z
m-2290 158 c-29 -79 -171 -332 -236 -421 -29 -40 -54 -77 -56 -83 -2 -6 -12
-7 -22 -3 -16 6 -16 9 -5 18 29 22 166 249 299 493 19 34 36 60 38 58 2 -2 -6
-30 -18 -62z m-285 -9 c-10 -15 -63 -84 -119 -153 -55 -70 -113 -142 -127
-161 -39 -51 -44 -32 -6 22 51 73 188 249 226 291 38 42 53 42 26 1z m598 -1
c-3 -18 -9 -33 -13 -33 -7 0 -5 24 6 59 8 24 12 7 7 -26z m1541 -35 c19 -38
19 -38 3 -38 -8 0 -18 16 -24 35 -14 44 0 46 21 3z m-2025 -20 c-6 -13 -22
-37 -34 -53 -42 -56 -195 -310 -195 -322 0 -7 -4 -13 -10 -13 -5 0 -10 5 -10
10 0 30 118 232 194 332 50 67 78 89 55 46z m457 -25 c-11 -11 -17 4 -9 23 7
18 8 18 11 1 2 -10 1 -21 -2 -24z m1524 -144 c0 -6 -4 -7 -10 -4 -5 3 -10 11
-10 16 0 6 5 7 10 4 6 -3 10 -11 10 -16z m-2030 -275 c0 -32 -2 -35 -22 -28
-13 3 -24 8 -26 9 -3 3 38 51 46 54 1 1 2 -15 2 -35z"/>
<path d="M4430 7813 c0 -34 -6 -58 -19 -74 -18 -24 -17 -26 14 -134 17 -60 43
-144 57 -185 14 -41 33 -103 44 -138 11 -35 24 -60 30 -58 7 3 19 -22 29 -57
10 -34 22 -66 27 -71 13 -16 9 29 -7 81 -8 26 -19 62 -25 78 -5 17 -14 62 -20
100 -6 39 -24 120 -40 180 -16 61 -38 155 -49 209 -23 116 -41 145 -41 69z
m80 -349 c0 -8 -4 -12 -10 -9 -5 3 -10 10 -10 16 0 5 5 9 10 9 6 0 10 -7 10
-16z"/>
<path d="M5297 7705 c-24 -140 -45 -413 -24 -315 13 62 38 288 35 320 l-3 35
-8 -40z"/>
<path d="M5517 7577 c-20 -62 -37 -121 -37 -131 0 -26 17 -10 23 21 3 16 17
70 31 122 15 51 25 95 23 97 -1 2 -20 -47 -40 -109z"/>
<path d="M5470 7615 c-5 -14 -15 -24 -22 -23 -8 2 -13 -9 -14 -32 -1 -19 -11
-64 -22 -100 -42 -133 -42 -132 -42 -151 0 -5 -3 -8 -8 -5 -4 2 -8 -13 -8 -35
-1 -21 1 -39 5 -39 7 0 101 308 101 332 0 9 4 19 9 22 9 6 22 56 14 56 -2 0
-8 -11 -13 -25z"/>
<path d="M4733 7595 c0 -22 2 -30 4 -17 2 12 2 30 0 40 -3 9 -5 -1 -4 -23z"/>
<path d="M4681 7615 c0 -5 6 -45 13 -88 13 -75 24 -106 27 -76 1 8 5 -14 9
-49 4 -35 12 -68 19 -75 9 -9 11 8 7 78 -2 50 -5 101 -5 114 -1 16 -5 21 -16
17 -10 -4 -19 2 -24 17 -20 52 -30 71 -30 62z"/>
<path d="M5613 7342 c-1 -22 0 -24 9 -8 6 10 6 22 2 26 -5 5 -10 -3 -11 -18z"/>
<path d="M5583 7298 c-11 -15 -33 -89 -33 -109 1 -11 60 105 60 117 0 9 -18 3
-27 -8z"/>
<path d="M5662 7045 c-17 -37 -14 -45 4 -12 9 16 14 31 11 33 -2 2 -9 -7 -15
-21z"/>
<path d="M4240 6793 c0 -12 5 -25 10 -28 13 -8 13 15 0 35 -8 12 -10 11 -10
-7z"/>
<path d="M4332 6790 c0 -14 2 -19 5 -12 2 6 2 18 0 25 -3 6 -5 1 -5 -13z"/>
<path d="M5496 6255 c-15 -19 -23 -35 -18 -35 10 0 55 60 49 66 -2 3 -16 -11
-31 -31z"/>
<path d="M5412 6160 c-15 -19 -28 -27 -39 -23 -13 5 -15 2 -10 -11 4 -10 4
-23 0 -29 -4 -7 -9 -2 -13 13 -7 28 -8 28 -113 16 -37 -5 -75 -15 -83 -23 -8
-8 -40 -18 -70 -22 -52 -7 -57 -6 -62 13 -13 48 -20 -36 -21 -256 -1 -126 -5
-228 -10 -228 -16 0 -21 60 -21 241 0 113 -4 179 -10 179 -5 0 -10 -4 -10 -9
0 -5 -20 -7 -45 -6 -25 2 -47 0 -50 -5 -9 -15 -178 -1 -197 17 -10 9 -18 13
-18 9 0 -13 153 -224 226 -311 78 -93 110 -142 99 -153 -3 -3 -56 10 -118 31
-62 20 -155 48 -207 62 -117 31 -209 56 -515 140 -132 36 -276 72 -320 80 -44
9 -179 41 -300 71 -121 31 -231 59 -245 62 -21 4 -13 -7 42 -69 83 -91 431
-435 555 -547 50 -45 106 -105 124 -132 18 -28 37 -50 43 -50 5 0 58 18 116
39 110 41 517 178 705 237 65 20 116 42 125 54 8 10 26 35 40 55 22 32 138
184 218 285 16 19 43 59 61 89 18 29 61 89 97 132 36 44 61 79 57 78 -4 0 -18
-13 -31 -29z"/>
<path d="M6660 6000 c-111 -32 -248 -66 -440 -110 -102 -23 -252 -61 -335 -85
-156 -46 -655 -183 -785 -217 -110 -28 -108 -27 -86 -44 34 -25 265 -110 486
-179 118 -37 267 -85 330 -107 l114 -40 116 120 c63 66 132 134 153 151 80 62
547 531 530 530 -10 0 -47 -9 -83 -19z"/>
<path d="M6726 5925 c-11 -8 -17 -17 -14 -20 2 -3 13 4 23 15 21 23 18 25 -9
5z"/>
<path d="M6600 5823 c-116 -98 -375 -365 -330 -338 98 57 445 397 403 394 -4
0 -37 -25 -73 -56z"/>
<path d="M4938 5476 c-371 -462 -520 -657 -685 -898 -45 -67 -104 -149 -130
-182 -145 -185 -182 -234 -196 -262 -15 -30 -15 -30 13 -32 15 -1 54 11 86 28
33 16 55 29 49 30 -5 0 -3 5 5 10 20 13 33 13 25 0 -9 -14 4 -11 50 11 22 10
30 16 18 13 -80 -20 50 48 202 106 59 22 173 74 253 114 81 41 188 92 239 115
107 47 109 47 228 -24 44 -27 130 -72 190 -100 61 -29 157 -76 215 -104 126
-62 340 -153 500 -213 30 -11 62 -26 70 -33 8 -7 25 -18 38 -24 45 -23 23 16
-59 106 -45 48 -107 126 -139 173 -109 161 -507 689 -660 875 -111 135 -206
259 -231 303 -13 23 -27 42 -31 42 -4 0 -26 -24 -50 -54z"/>
<path d="M6186 5431 c-23 -23 -25 -29 -10 -25 20 6 61 54 46 54 -4 0 -21 -13
-36 -29z"/>
<path d="M6069 5323 c-13 -16 -12 -17 4 -4 9 7 17 15 17 17 0 8 -8 3 -21 -13z"/>
<path d="M4828 4494 c-16 -8 -28 -17 -28 -19 0 -7 60 17 66 26 8 13 -7 10 -38
-7z"/>
<path d="M4225 4215 c-25 -12 -26 -14 -5 -9 28 7 60 23 45 23 -5 0 -23 -6 -40
-14z"/>
<path d="M6323 5113 c9 -2 23 -2 30 0 6 3 -1 5 -18 5 -16 0 -22 -2 -12 -5z"/>
<path d="M6408 5093 c7 -3 16 -2 19 1 4 3 -2 6 -13 5 -11 0 -14 -3 -6 -6z"/>
<path d="M3570 5093 c-19 -8 -30 -17 -24 -20 7 -2 27 5 45 16 40 25 29 27 -21
4z"/>
<path d="M3489 5059 c16 -6 28 -6 35 1 7 7 -1 10 -24 9 -33 0 -34 -1 -11 -10z"/>
<path d="M3425 4959 c-45 -11 -71 -29 -39 -29 30 1 154 26 161 33 9 10 -75 7
-122 -4z"/>
<path d="M3622 4841 c-55 -19 -85 -38 -42 -27 68 18 100 30 100 38 0 4 -1 8
-2 7 -2 0 -27 -9 -56 -18z"/>
<path d="M3348 7932 c19 -21 27 -20 19 3 -4 8 -13 15 -22 15 -13 0 -12 -3 3
-18z"/>
<path d="M7485 4210 c-9 -18 -14 -34 -11 -37 2 -3 12 9 21 27 9 18 14 34 11
37 -2 3 -12 -9 -21 -27z"/>
<path d="M5537 3768 c3 -18 9 -37 13 -43 4 -5 15 -37 25 -70 10 -33 33 -93 51
-132 19 -40 34 -79 34 -87 0 -8 5 -18 10 -21 6 -3 10 -14 9 -23 0 -11 -3 -12
-6 -4 -10 25 -19 11 -18 -30 1 -31 6 -43 20 -48 17 -6 17 -8 3 -16 -11 -6 -14
-19 -11 -41 3 -18 9 -33 14 -33 5 0 6 7 3 15 -4 8 -1 15 6 15 7 0 10 6 7 13
-3 8 1 14 9 14 8 0 14 -3 14 -6 1 -3 12 -19 26 -36 l25 -30 -22 60 c-12 33
-39 101 -61 150 -37 86 -97 238 -133 338 -19 55 -27 61 -18 15z"/>
<path d="M5556 3595 c4 -8 8 -15 10 -15 2 0 4 7 4 15 0 8 -4 15 -10 15 -5 0
-7 -7 -4 -15z"/>
<path d="M4321 3544 c0 -11 3 -14 6 -6 3 7 2 16 -1 19 -3 4 -6 -2 -5 -13z"/>
<path d="M4271 3417 c-11 -27 -21 -54 -21 -61 0 -7 -4 -16 -8 -21 -29 -33 -96
-241 -81 -251 11 -7 39 56 39 89 0 13 4 27 8 32 5 6 14 30 22 55 11 40 28 80
63 157 5 11 7 27 4 35 -2 7 -14 -8 -26 -35z"/>
<path d="M4321 3364 c0 -11 3 -14 6 -6 3 7 2 16 -1 19 -3 4 -6 -2 -5 -13z"/>
<path d="M4077 3278 c-19 -43 -27 -68 -22 -68 7 0 46 93 41 97 -2 3 -11 -10
-19 -29z"/>
<path d="M5581 3305 c1 -19 18 -51 18 -35 0 8 -4 22 -9 30 -5 8 -9 11 -9 5z"/>
<path d="M4998 3260 c2 -16 6 -30 8 -30 2 0 4 14 4 30 0 17 -4 30 -8 30 -5 0
-7 -13 -4 -30z"/>
<path d="M5850 3258 c0 -19 18 -43 25 -36 9 9 -4 48 -16 48 -5 0 -9 -6 -9 -12z"/>
<path d="M5927 3190 c3 -11 9 -22 13 -25 5 -3 6 4 3 15 -3 11 -9 22 -13 25 -5
3 -6 -4 -3 -15z"/>
<path d="M5486 3155 c9 -75 28 -153 31 -130 2 11 -5 56 -17 100 -16 64 -19 70
-14 30z"/>
<path d="M5770 3195 c0 -5 5 -17 10 -25 5 -8 10 -10 10 -5 0 6 -5 17 -10 25
-5 8 -10 11 -10 5z"/>
<path d="M4255 3168 c-12 -37 -34 -133 -30 -136 4 -4 19 48 35 116 8 31 4 45
-5 20z"/>
<path d="M5790 3142 c0 -14 28 -72 35 -72 6 0 -16 63 -26 75 -6 5 -9 4 -9 -3z"/>
<path d="M4067 3084 c-4 -4 -7 -14 -7 -23 0 -11 3 -12 11 -4 6 6 10 16 7 23
-2 6 -7 8 -11 4z"/>
<path d="M5835 3023 c5 -42 5 -42 -35 -53 -22 -6 -40 -15 -40 -20 0 -13 0 -13
77 7 63 15 65 17 45 32 -11 9 -27 30 -36 46 l-17 30 6 -42z"/>
<path d="M4131 3024 c0 -11 3 -14 6 -6 3 7 2 16 -1 19 -3 4 -6 -2 -5 -13z"/>
<path d="M5950 3008 c-14 -6 -20 -12 -13 -15 6 -2 24 3 40 11 32 17 11 20 -27
4z"/>
<path d="M5521 2984 c0 -11 3 -14 6 -6 3 7 2 16 -1 19 -3 4 -6 -2 -5 -13z"/>
<path d="M4398 2883 c7 -3 16 -2 19 1 4 3 -2 6 -13 5 -11 0 -14 -3 -6 -6z"/>
<path d="M3194 7796 c-10 -8 -16 -17 -13 -20 3 -3 14 3 24 14 21 23 17 26 -11
6z"/>
<path d="M6714 8377 c10 -7 39 -25 65 -41 193 -120 373 -253 556 -411 243
-210 451 -466 639 -783 151 -258 249 -489 331 -788 53 -192 69 -263 90 -414
66 -479 22 -939 -136 -1420 -88 -269 -346 -741 -504 -925 -34 -38 -74 -88 -90
-110 -17 -22 -32 -42 -36 -45 -3 -3 -12 -15 -20 -26 -46 -68 -240 -269 -363
-377 -88 -77 -123 -92 -134 -58 -3 8 0 11 6 8 5 -4 16 1 23 10 10 12 10 14 2
9 -8 -4 -13 -1 -13 8 0 9 5 16 11 16 6 0 8 8 4 19 -4 14 1 23 17 33 13 7 26
11 31 10 4 -1 7 3 7 8 0 6 57 67 126 136 69 69 123 128 119 132 -3 4 -28 -16
-53 -43 -26 -27 -69 -70 -97 -94 -27 -24 -81 -73 -120 -107 -190 -172 -410
-318 -690 -459 -222 -112 -370 -172 -545 -220 -130 -36 -146 -43 -92 -44 29
-1 42 -5 42 -15 0 -17 -24 -38 -33 -29 -4 3 -7 2 -7 -3 0 -5 9 -16 19 -24 19
-13 17 -15 -29 -31 -27 -9 -67 -20 -89 -24 -60 -10 -59 -23 2 -14 180 25 559
163 834 303 355 181 708 455 983 762 63 71 134 149 158 174 66 69 32 10 -52
-89 -39 -47 -80 -97 -92 -112 -40 -55 -200 -216 -313 -318 -108 -96 -336 -265
-459 -339 -259 -157 -679 -333 -972 -407 -263 -67 -442 -95 -760 -120 -75 -6
-387 16 -510 36 -127 21 -436 90 -530 118 -308 94 -673 257 -903 403 -89 57
-268 190 -289 215 -24 29 39 -10 147 -91 373 -280 960 -509 1505 -586 168 -24
229 -24 95 0 -263 48 -385 72 -436 86 l-57 16 5 39 c5 36 4 39 -18 40 l-24 0
25 10 c14 6 37 8 53 5 15 -3 27 -2 27 3 0 5 -17 11 -38 15 -65 10 -459 163
-617 240 -167 81 -372 201 -474 280 -195 148 -288 225 -380 313 -56 54 -101
96 -101 93 1 -3 23 -29 50 -59 50 -54 59 -78 39 -98 -14 -14 -8 -55 9 -61 6
-2 12 3 12 12 0 9 5 16 11 16 6 0 9 -6 6 -12 -2 -7 4 -28 14 -45 10 -18 17
-33 14 -33 -29 0 -308 288 -438 453 -209 264 -420 642 -511 917 -200 600 -241
1107 -136 1685 42 237 164 592 289 844 112 227 297 504 452 676 99 110 107
122 54 76 -40 -34 -51 -40 -53 -26 -2 9 6 23 17 31 24 18 27 34 6 34 -9 0 -12
6 -9 15 11 27 -14 16 -62 -29 -27 -26 -43 -49 -39 -56 5 -8 12 -7 26 5 17 16
18 16 13 -9 -2 -14 0 -26 6 -26 5 0 10 5 10 10 0 6 5 10 10 10 23 0 7 -30 -35
-69 -25 -23 -45 -45 -45 -49 0 -13 -59 -78 -60 -65 0 6 5 15 10 18 5 3 10 10
10 16 0 18 -15 8 -32 -22 -10 -17 -23 -27 -29 -24 -5 4 -19 -1 -30 -11 -19
-17 -20 -17 -13 0 6 16 5 17 -17 4 -13 -7 -26 -15 -29 -18 -3 -3 -18 -12 -35
-20 -32 -16 -34 -17 -80 -53 -16 -13 -41 -24 -53 -25 -13 0 -34 -12 -47 -26
-13 -14 -35 -28 -49 -31 -14 -3 -37 -7 -51 -10 -14 -3 -25 -1 -25 4 0 4 -11 9
-25 9 -13 0 -22 -4 -19 -9 3 -5 -6 -9 -20 -9 -34 0 -37 10 -15 45 33 51 80
156 76 168 -1 5 -36 -23 -77 -64 -40 -41 -71 -67 -68 -59 3 8 10 24 14 34 16
40 -17 3 -75 -83 -64 -95 -174 -306 -222 -429 -17 -42 -44 -108 -61 -147 -36
-81 -95 -281 -131 -445 -83 -367 -119 -926 -82 -1255 28 -249 142 -700 237
-934 145 -359 384 -742 663 -1066 142 -165 450 -467 552 -542 43 -31 98 -74
123 -94 172 -143 679 -418 975 -529 159 -60 384 -132 483 -155 156 -37 303
-65 396 -75 89 -11 102 -10 132 6 19 10 34 22 34 26 0 25 270 138 329 138 21
0 31 34 31 104 0 22 4 47 9 55 10 15 19 -30 24 -119 2 -43 4 -45 37 -51 78
-15 228 -79 256 -110 9 -11 35 -22 56 -25 20 -4 35 -10 32 -15 -9 -15 74 -10
247 15 429 63 887 229 1324 481 595 343 1101 835 1451 1412 134 222 280 546
362 804 47 148 120 461 136 589 40 308 44 662 11 952 -30 254 -128 662 -211
872 -51 130 -192 414 -263 531 -59 98 -127 188 -114 151 5 -16 3 -17 -14 -8
-11 6 -25 18 -32 26 -10 12 -66 46 -76 46 -2 0 12 -41 30 -91 18 -49 36 -105
39 -123 l6 -33 -52 9 c-29 5 -65 17 -81 26 -16 10 -41 23 -56 31 -14 8 -30 20
-36 27 -5 7 -25 16 -43 19 -18 3 -50 16 -70 29 -20 14 -55 26 -77 28 -22 2
-45 8 -52 14 -6 6 -23 9 -36 7 -25 -5 -30 0 -127 125 -22 28 -36 52 -30 52 21
0 50 -21 50 -35 0 -8 5 -15 10 -15 6 0 10 6 10 14 0 19 -39 46 -66 46 -12 0
-28 7 -35 16 -12 15 -11 16 8 10 19 -6 21 -4 18 15 -2 12 2 34 10 49 20 38 10
64 -36 89 -21 12 -39 25 -39 29 0 4 -17 25 -37 46 -34 35 -38 36 -50 20 -11
-15 -13 -15 -13 -2 0 9 -11 19 -25 22 -20 5 -25 13 -25 36 0 28 -2 30 -39 30
-22 0 -43 5 -46 10 -3 6 -16 10 -29 10 -12 0 -33 11 -46 25 -12 13 -25 24 -29
23 -3 -1 -14 2 -25 7 -11 5 -21 4 -25 -3 -6 -10 -70 27 -118 68 -7 5 -15 10
-18 10 -4 0 -25 15 -48 34 -40 32 -87 62 -207 131 -58 33 -113 56 -76 32z
m583 -373 c-9 -9 -28 6 -21 18 4 6 10 6 17 -1 6 -6 8 -13 4 -17z m-5821 -826
c-18 -26 -22 -17 -5 14 6 11 13 17 16 15 3 -3 -2 -16 -11 -29z m-93 -1646 c15
-14 27 -36 27 -50 0 -30 -51 -82 -81 -82 -21 0 -89 61 -89 81 0 5 16 27 36 49
41 46 60 46 107 2z m7327 9 c18 -13 26 -29 28 -58 3 -35 -1 -44 -33 -72 -20
-17 -40 -31 -46 -31 -6 0 -33 22 -61 48 l-51 49 18 26 c23 36 76 68 100 61 11
-3 31 -14 45 -23z m-6170 -2366 c35 -36 38 -49 4 -17 -23 20 -48 52 -42 52 2
0 19 -16 38 -35z m190 -25 c0 -5 -7 -10 -15 -10 -8 0 -15 5 -15 10 0 6 7 10
15 10 8 0 15 -4 15 -10z m20 -177 c0 -2 -9 2 -21 10 -25 18 -149 137 -149 144
0 2 38 -30 85 -73 47 -42 85 -79 85 -81z m4350 47 c-6 -11 -15 -20 -20 -20 -5
0 -15 -6 -22 -12 -65 -60 -68 -62 -68 -45 0 9 6 17 13 17 6 1 32 19 57 40 52
46 55 47 40 20z m-4271 -114 c1 -13 -62 38 -68 55 -2 8 12 0 32 -16 19 -17 36
-34 36 -39z m1251 -488 c19 -6 14 -7 -19 -4 -24 3 -49 10 -55 16 -11 12 18 7
74 -12z"/>
<path d="M2921 8170 c-30 -26 -14 -26 19 0 14 11 21 20 15 19 -5 0 -21 -9 -34
-19z"/>
<path d="M2775 8054 c-89 -73 -180 -158 -191 -177 -4 -6 20 13 52 44 32 30 96
86 142 123 71 59 90 77 80 76 -2 0 -39 -30 -83 -66z"/>
<path d="M7441 7984 c0 -11 3 -14 6 -6 3 7 2 16 -1 19 -3 4 -6 -2 -5 -13z"/>
<path d="M2426 7775 c-7 -20 9 -28 23 -11 9 10 8 15 -3 19 -8 3 -17 -1 -20 -8z"/>
<path d="M2240 7570 c0 -5 5 -10 10 -10 6 0 10 5 10 10 0 6 -4 10 -10 10 -5 0
-10 -4 -10 -10z"/>
<path d="M8963 5025 c0 -22 2 -30 4 -17 2 12 2 30 0 40 -3 9 -5 -1 -4 -23z"/>
<path d="M8947 4948 c-3 -18 -13 -76 -22 -128 -22 -125 -106 -446 -140 -535
-15 -38 -39 -106 -54 -150 -33 -94 -62 -161 -154 -350 -95 -194 -162 -299
-420 -664 -68 -95 -85 -131 -44 -94 12 11 37 28 54 37 28 14 38 14 72 4 22 -7
42 -19 43 -28 4 -17 88 85 158 190 24 36 65 94 91 130 26 36 77 119 113 185
226 406 358 760 425 1130 19 106 17 121 -7 62 -7 -18 -11 -23 -9 -11 3 15 -1
20 -15 19 -10 -1 -24 -7 -30 -13 -17 -17 -31 -15 -25 3 4 8 2 17 -3 20 -6 4
-10 1 -10 -4 0 -17 -17 -13 -24 6 -4 9 -2 61 5 115 11 95 8 145 -4 76z"/>
<path d="M1004 4926 c3 -22 0 -46 -6 -53 -6 -7 -8 -16 -4 -20 3 -3 6 -1 6 6 0
7 5 9 10 6 15 -9 12 -25 -5 -25 -8 0 -15 -5 -15 -11 0 -6 -7 -9 -15 -5 -9 3
-15 0 -15 -9 0 -8 -7 -15 -15 -15 -8 0 -15 5 -15 10 0 6 5 10 10 10 6 0 10 7
10 16 0 11 -5 14 -16 10 -20 -8 -53 30 -54 61 0 12 -4 25 -10 28 -14 9 -13 1
20 -196 52 -315 97 -468 234 -797 92 -220 150 -326 348 -632 128 -198 300
-414 351 -441 18 -10 18 -9 2 14 -12 18 -13 27 -4 32 8 6 8 10 -2 16 -10 6
-10 9 -2 9 7 0 10 7 7 15 -7 16 11 21 21 5 3 -6 15 -5 31 2 15 7 20 14 13 18
-8 6 -8 10 1 15 8 5 20 -2 32 -18 23 -32 157 -167 165 -167 3 0 -14 21 -38 48
-347 373 -680 898 -833 1312 -25 69 -52 152 -60 185 -8 33 -25 99 -39 146 -14
47 -40 153 -57 235 -18 82 -39 167 -46 189 l-15 40 5 -39z m23 -163 c-2 -16
-4 -5 -4 22 0 28 2 40 4 28 2 -13 2 -35 0 -50z"/>
<path d="M900 4909 c0 -5 5 -7 10 -4 6 3 10 8 10 11 0 2 -4 4 -10 4 -5 0 -10
-5 -10 -11z"/>
<path d="M970 4894 c0 -8 5 -12 10 -9 6 4 8 11 5 16 -9 14 -15 11 -15 -7z"/>
<path d="M870 4651 c0 -29 27 -174 50 -272 22 -93 108 -325 150 -405 36 -68
36 -68 -36 131 -55 152 -124 391 -143 499 -12 63 -21 84 -21 47z"/>
<path d="M9055 4464 c-10 -43 -27 -105 -36 -136 -9 -32 -15 -58 -13 -58 15 0
78 225 72 258 -2 9 -12 -20 -23 -64z"/>
<path d="M2270 3703 c0 -6 8 -17 18 -24 16 -13 16 -13 2 6 -8 11 -16 22 -17
24 -2 2 -3 0 -3 -6z"/>
<path d="M1260 3579 c0 -7 20 -72 45 -145 71 -213 205 -464 310 -584 32 -36
89 -108 128 -160 173 -233 616 -634 890 -806 445 -278 806 -434 1282 -553 181
-45 345 -76 455 -86 l75 -7 -30 30 c-16 16 -33 28 -37 25 -5 -2 -8 1 -8 7 0
25 -48 57 -102 69 -32 7 -61 19 -66 27 -4 7 -54 25 -112 39 -389 97 -845 278
-1160 460 -36 21 -95 55 -133 76 -327 183 -788 575 -1043 889 -150 184 -292
391 -413 603 -41 70 -75 127 -77 127 -2 0 -4 -5 -4 -11z"/>
<path d="M2390 3546 c0 -2 8 -10 18 -17 15 -13 16 -12 3 4 -13 16 -21 21 -21
13z"/>
<path d="M7564 3523 c-10 -15 -40 -54 -67 -85 -27 -32 -46 -58 -41 -58 20 0
143 154 131 166 -3 3 -13 -7 -23 -23z"/>
<path d="M2436 3487 c2 -7 14 -18 25 -25 21 -13 21 -13 3 12 -20 27 -37 35
-28 13z"/>
<path d="M2520 3396 c0 -2 8 -10 18 -17 15 -13 16 -12 3 4 -13 16 -21 21 -21
13z"/>
<path d="M8567 3338 c-14 -18 -40 -58 -58 -88 -48 -80 -208 -306 -314 -445
-51 -66 -104 -145 -119 -175 -65 -130 -107 -176 -197 -214 -106 -45 -155 -74
-280 -168 -266 -198 -444 -310 -720 -453 -197 -101 -241 -121 -419 -190 -142
-54 -281 -99 -430 -137 -41 -10 -79 -25 -85 -32 -5 -7 -27 -19 -47 -26 -41
-15 -47 -24 -23 -34 8 -3 15 -15 15 -26 0 -23 -34 -40 -81 -40 -16 0 -29 -4
-29 -9 0 -5 -19 -16 -42 -24 -121 -43 165 8 382 68 255 71 388 114 530 171
184 75 504 242 620 324 52 37 141 97 197 133 56 36 122 83 145 105 24 21 104
88 178 149 180 147 270 244 525 557 148 182 226 330 263 499 10 48 17 87 16
87 -2 0 -14 -15 -27 -32z"/>
<path d="M2110 2775 c0 -8 51 -55 60 -55 6 0 10 -7 10 -16 0 -9 8 -23 18 -30
16 -13 16 -13 0 -14 -10 0 -18 4 -18 9 0 5 -9 11 -21 14 -17 5 -18 3 -8 -9 9
-11 9 -20 0 -41 -11 -25 -12 -25 -26 -7 -8 11 -14 14 -15 7 0 -19 -38 -16 -49
5 -9 14 -10 15 -11 1 0 -20 183 -201 320 -316 250 -209 635 -436 1003 -591
178 -75 633 -222 688 -222 11 0 16 6 13 18 -8 28 24 92 46 92 23 0 35 16 18
24 -7 3 19 4 57 2 l70 -5 -70 15 c-133 27 -513 148 -690 219 -151 61 -431 203
-566 287 -57 36 -140 87 -184 114 -44 26 -109 71 -145 98 -36 28 -92 71 -125
95 -66 50 -219 181 -304 260 -49 46 -71 60 -71 46z"/>
<path d="M7450 2420 c-14 -10 -23 -21 -20 -23 3 -3 18 6 33 19 33 28 23 32
-13 4z"/>
<path d="M4248 2383 c6 -2 18 -2 25 0 6 3 1 5 -13 5 -14 0 -19 -2 -12 -5z"/>
<path d="M5860 2380 c0 -5 5 -10 11 -10 5 0 7 5 4 10 -3 6 -8 10 -11 10 -2 0
-4 -4 -4 -10z"/>
<path d="M7335 2339 c-210 -150 -587 -355 -865 -470 -162 -67 -353 -131 -476
-159 -53 -12 -111 -28 -128 -36 l-31 -13 33 -1 c17 0 32 -4 32 -10 0 -5 4 -10
9 -10 19 0 63 -49 55 -61 -5 -8 2 -10 25 -7 36 5 41 -4 9 -20 -64 -31 85 4
267 61 117 37 411 154 534 213 195 93 560 316 666 407 l40 35 -42 -2 c-23 0
-40 -3 -37 -5 8 -9 -19 -31 -40 -31 -15 0 -17 -3 -8 -9 10 -6 7 -12 -12 -24
-24 -16 -24 -16 -16 12 7 25 5 30 -13 35 -22 6 -22 7 -3 21 14 11 16 15 5 15
-9 1 -4 10 14 25 15 13 27 28 27 32 0 5 9 14 20 21 19 12 28 33 13 31 -5 0
-39 -23 -78 -50z"/>
<path d="M4298 2373 c7 -3 16 -2 19 1 4 3 -2 6 -13 5 -11 0 -14 -3 -6 -6z"/>
<path d="M4338 2363 c6 -2 18 -2 25 0 6 3 1 5 -13 5 -14 0 -19 -2 -12 -5z"/>
<path d="M4388 2353 c7 -3 16 -2 19 1 4 3 -2 6 -13 5 -11 0 -14 -3 -6 -6z"/>
<path d="M4433 2343 c9 -2 23 -2 30 0 6 3 -1 5 -18 5 -16 0 -22 -2 -12 -5z"/>
<path d="M5793 1653 c9 -2 23 -2 30 0 6 3 -1 5 -18 5 -16 0 -22 -2 -12 -5z"/>
</g>
</svg>
